<svg xmlns="http://www.w3.org/2000/svg" width="147.178" height="24" viewBox="0 0 147.178 24"><defs><style>.a{fill:#fff;}.b{fill:#ffcf00;}</style></defs><g transform="translate(3010.208 3613.352)"><path class="a" d="M3.458,1.382H6.782l1.95-7.135h.14l1.95,7.135h3.331l3.08-11.344H14.057L12.329-2.384h-.1L10.371-9.962H7.247L5.416-2.34h-.1L3.554-9.962H.371Zm14.924,0h3.146V-9.962H18.382Zm1.581-12.807a1.658,1.658,0,0,0,1.706-1.6,1.657,1.657,0,0,0-1.706-1.588,1.655,1.655,0,0,0-1.7,1.588A1.656,1.656,0,0,0,19.962-11.424ZM23.519,1.382h3.146v-3.6l.849-.968L30.61,1.382H34.3L29.871-5.05l4.21-4.911H30.469L26.836-5.656h-.17v-8.087H23.519ZM39.75,1.6c3.442,0,5.584-2.356,5.584-5.849,0-3.516-2.142-5.864-5.584-5.864s-5.584,2.349-5.584,5.864C34.167-.752,36.308,1.6,39.75,1.6Zm.015-2.437c-1.588,0-2.4-1.455-2.4-3.434s.812-3.442,2.4-3.442c1.558,0,2.371,1.462,2.371,3.442S41.323-.833,39.765-.833ZM50.013-5.176A2.092,2.092,0,0,1,52.163-7.5a1.946,1.946,0,0,1,2.016,2.216V1.382h3.146V-5.841c0-2.644-1.551-4.269-3.914-4.269A3.427,3.427,0,0,0,50-7.96h-.133v-2h-3V1.382h3.146Zm12.412,0A2.092,2.092,0,0,1,64.575-7.5a1.946,1.946,0,0,1,2.016,2.216V1.382h3.146V-5.841c0-2.644-1.551-4.269-3.914-4.269A3.427,3.427,0,0,0,62.411-7.96h-.133v-2h-3V1.382h3.146ZM76.862,1.6c2.807,0,4.7-1.366,5.14-3.471l-2.91-.192A2.136,2.136,0,0,1,76.914-.745a2.466,2.466,0,0,1-2.57-2.733v-.007h7.725v-.864c0-3.855-2.334-5.761-5.332-5.761-3.338,0-5.5,2.371-5.5,5.872C71.234-.641,73.368,1.6,76.862,1.6ZM74.343-5.435a2.4,2.4,0,0,1,2.445-2.326,2.236,2.236,0,0,1,2.319,2.326ZM88.728,1.6c3.021,0,4.919-1.773,5.067-4.38H90.825A2.02,2.02,0,0,1,88.765-.885c-1.47,0-2.423-1.233-2.423-3.4,0-2.142.96-3.368,2.423-3.368a2.022,2.022,0,0,1,2.061,1.891h2.969c-.133-2.622-2.12-4.343-5.081-4.343-3.442,0-5.569,2.386-5.569,5.864C83.144-.8,85.234,1.6,88.728,1.6Zm12.6-11.566H99.2V-12.68H96.051v2.718H94.5V-7.6h1.551V-1.69c-.015,2.223,1.5,3.324,3.781,3.228a6.12,6.12,0,0,0,1.706-.3L101.044-1.1a4.3,4.3,0,0,1-.783.1C99.634-1,99.2-1.232,99.2-2.1V-7.6h2.134Z" transform="translate(-2964.569 -3596.302)"/><path class="b" d="M-2975.58-3612.679a4.537,4.537,0,0,0-3.984,3.927,4.5,4.5,0,0,0,.517,2.726,1,1,0,0,1-.017.986l-2.073,3.591a1.025,1.025,0,0,1-.9.5h-.05a1.03,1.03,0,0,1-.907-.508l-1.859-3.221a1,1,0,0,1,0-1.016,4.829,4.829,0,0,0,.665-3.016,4.857,4.857,0,0,0-4.268-4.292,4.851,4.851,0,0,0-5.4,4.815,4.815,4.815,0,0,0,.663,2.446,1,1,0,0,1,0,1.01l-2.8,4.853a1.016,1.016,0,0,1-.907.507h-.123l-.187,0a1.007,1.007,0,0,1-.907-.508l-2.588-4.483a1.017,1.017,0,0,1,.023-1.054,5.138,5.138,0,0,0,.786-3.263,5.194,5.194,0,0,0-4.814-4.669,5.175,5.175,0,0,0-5.5,5.159,5.174,5.174,0,0,0,5.169,5.17c.1,0,.2,0,.305-.009a1.025,1.025,0,0,1,.953.5l2.554,4.425a1.017,1.017,0,0,1-.024,1.055,5,5,0,0,0-.756,3.148,5.032,5.032,0,0,0,4.665,4.527,5.015,5.015,0,0,0,5.331-5,4.977,4.977,0,0,0-.806-2.721,1.013,1.013,0,0,1-.029-1.062l2.708-4.691a1,1,0,0,1,.91-.506c.076,0,.151.005.228.005.056,0,.112,0,.168,0a1.01,1.01,0,0,1,.908.508l1.844,3.194a1,1,0,0,1,0,1.01,4.661,4.661,0,0,0-.616,2.887,4.7,4.7,0,0,0,4.124,4.135,4.691,4.691,0,0,0,5.218-4.656,4.646,4.646,0,0,0-.663-2.4,1.01,1.01,0,0,1,0-1.019l2.006-3.474a1.034,1.034,0,0,1,.911-.508h.027a4.529,4.529,0,0,0,4.522-4.524A4.529,4.529,0,0,0-2975.58-3612.679Zm-13.423,3.013a1.485,1.485,0,0,1,1.483,1.483A1.486,1.486,0,0,1-2989-3606.7a1.486,1.486,0,0,1-1.484-1.485A1.485,1.485,0,0,1-2989-3609.666Zm-17.619,1.483a1.582,1.582,0,0,1,1.582-1.581,1.583,1.583,0,0,1,1.583,1.581,1.584,1.584,0,0,1-1.583,1.583A1.583,1.583,0,0,1-3006.621-3608.183Zm9.6,15.355a1.535,1.535,0,0,1-1.534-1.533,1.535,1.535,0,0,1,1.534-1.533,1.535,1.535,0,0,1,1.532,1.533A1.534,1.534,0,0,1-2997.02-3592.828Zm14.98-2a1.436,1.436,0,0,1-1.433-1.434,1.435,1.435,0,0,1,1.433-1.434,1.435,1.435,0,0,1,1.435,1.434A1.436,1.436,0,0,1-2982.04-3594.826Zm6.965-11.971a1.386,1.386,0,0,1-1.385-1.386,1.386,1.386,0,0,1,1.385-1.385,1.387,1.387,0,0,1,1.384,1.385A1.387,1.387,0,0,1-2975.075-3606.8Z" transform="translate(0 0.001)"/></g></svg>