<svg xmlns="http://www.w3.org/2000/svg" width="183.972" height="30" viewBox="0 0 183.972 30"><defs><style>.a{fill:#afa8a8;}</style></defs><g transform="translate(3010.208 3613.352)"><path class="a" d="M4.23,5.38H8.385l2.437-8.918H11L13.435,5.38H17.6L21.448-8.8h-3.97L15.318.672H15.2L12.871-8.8H8.966L6.677.727H6.547L4.35-8.8H.371Zm18.654,0h3.933V-8.8H22.885ZM24.86-10.629a2.072,2.072,0,0,0,2.133-1.994,2.071,2.071,0,0,0-2.133-1.985,2.068,2.068,0,0,0-2.123,1.985A2.07,2.07,0,0,0,24.86-10.629ZM29.306,5.38h3.933V.875L34.3-.335,38.169,5.38h4.607l-5.53-8.041L42.508-8.8H37.994L33.452-3.418h-.212V-13.527H29.306Zm20.289.277c4.3,0,6.979-2.945,6.979-7.312,0-4.394-2.677-7.33-6.979-7.33s-6.979,2.936-6.979,7.33C42.615,2.712,45.293,5.657,49.595,5.657Zm.018-3.047c-1.985,0-3-1.819-3-4.293s1.016-4.3,3-4.3c1.948,0,2.964,1.828,2.964,4.3S51.561,2.61,49.613,2.61ZM62.424-2.818a2.616,2.616,0,0,1,2.687-2.9c1.579,0,2.53,1.034,2.52,2.77V5.38h3.933V-3.649c0-3.305-1.939-5.336-4.893-5.336A4.284,4.284,0,0,0,62.405-6.3h-.166V-8.8H58.491V5.38h3.933Zm15.516,0a2.616,2.616,0,0,1,2.687-2.9c1.579,0,2.53,1.034,2.52,2.77V5.38h3.933V-3.649c0-3.305-1.939-5.336-4.893-5.336A4.284,4.284,0,0,0,77.921-6.3h-.166V-8.8H74.007V5.38h3.933ZM95.985,5.657c3.508,0,5.872-1.708,6.426-4.339l-3.637-.24a2.671,2.671,0,0,1-2.723,1.643A3.083,3.083,0,0,1,92.836-.695V-.7h9.657v-1.08c0-4.819-2.917-7.2-6.666-7.2-4.173,0-6.878,2.964-6.878,7.34C88.95,2.85,91.618,5.657,95.985,5.657Zm-3.148-8.8a3,3,0,0,1,3.056-2.908,2.8,2.8,0,0,1,2.9,2.908Zm17.981,8.8c3.776,0,6.149-2.216,6.333-5.475h-3.711a2.525,2.525,0,0,1-2.576,2.363c-1.837,0-3.028-1.542-3.028-4.256,0-2.677,1.2-4.21,3.028-4.21a2.528,2.528,0,0,1,2.576,2.363h3.711c-.166-3.277-2.65-5.428-6.352-5.428-4.3,0-6.961,2.982-6.961,7.33C103.837,2.656,106.45,5.657,110.817,5.657ZM126.572-8.8H123.9v-3.4h-3.933v3.4h-1.939v2.954h1.939V1.539c-.018,2.779,1.874,4.154,4.727,4.034a7.65,7.65,0,0,0,2.133-.369l-.619-2.927a5.373,5.373,0,0,1-.979.129c-.785,0-1.329-.3-1.329-1.385V-5.846h2.668Z" transform="translate(-2953.067 -3595.691)"/><path class="a" d="M-2966.922-3612.51a5.673,5.673,0,0,0-4.98,4.909,5.619,5.619,0,0,0,.646,3.407,1.257,1.257,0,0,1-.021,1.233l-2.591,4.489a1.282,1.282,0,0,1-1.12.63h-.062a1.289,1.289,0,0,1-1.134-.635l-2.323-4.026a1.25,1.25,0,0,1,0-1.271,6.037,6.037,0,0,0,.831-3.77,6.07,6.07,0,0,0-5.335-5.364,6.063,6.063,0,0,0-6.747,6.018,6.016,6.016,0,0,0,.829,3.057,1.257,1.257,0,0,1,0,1.263l-3.5,6.066a1.27,1.27,0,0,1-1.133.634c-.052,0-.1,0-.154,0-.078,0-.156,0-.233,0a1.258,1.258,0,0,1-1.134-.635l-3.235-5.6a1.27,1.27,0,0,1,.028-1.317,6.423,6.423,0,0,0,.983-4.079,6.493,6.493,0,0,0-6.018-5.837,6.47,6.47,0,0,0-6.877,6.449,6.468,6.468,0,0,0,6.461,6.463c.128,0,.255,0,.381-.011a1.28,1.28,0,0,1,1.191.631l3.192,5.531a1.271,1.271,0,0,1-.03,1.319,6.247,6.247,0,0,0-.945,3.936,6.291,6.291,0,0,0,5.831,5.658,6.268,6.268,0,0,0,6.664-6.248,6.219,6.219,0,0,0-1.007-3.4,1.267,1.267,0,0,1-.037-1.328l3.384-5.864a1.256,1.256,0,0,1,1.137-.633c.095,0,.188.007.285.007.07,0,.14,0,.21,0a1.262,1.262,0,0,1,1.134.635l2.3,3.993a1.256,1.256,0,0,1,0,1.263,5.824,5.824,0,0,0-.77,3.609,5.873,5.873,0,0,0,5.155,5.168,5.864,5.864,0,0,0,6.522-5.82,5.8,5.8,0,0,0-.829-3,1.262,1.262,0,0,1,0-1.274l2.508-4.343a1.292,1.292,0,0,1,1.138-.634h.034a5.661,5.661,0,0,0,5.653-5.656A5.662,5.662,0,0,0-2966.922-3612.51Zm-16.778,3.766a1.856,1.856,0,0,1,1.854,1.854,1.857,1.857,0,0,1-1.854,1.856,1.858,1.858,0,0,1-1.855-1.856A1.856,1.856,0,0,1-2983.7-3608.744Zm-22.023,1.854a1.978,1.978,0,0,1,1.977-1.976,1.979,1.979,0,0,1,1.979,1.976,1.98,1.98,0,0,1-1.979,1.979A1.979,1.979,0,0,1-3005.724-3606.891Zm12,19.193a1.918,1.918,0,0,1-1.918-1.916,1.919,1.919,0,0,1,1.918-1.917,1.919,1.919,0,0,1,1.915,1.917A1.917,1.917,0,0,1-2993.723-3587.7Zm18.726-2.5a1.794,1.794,0,0,1-1.792-1.793,1.794,1.794,0,0,1,1.792-1.792,1.794,1.794,0,0,1,1.793,1.792A1.794,1.794,0,0,1-2975-3590.195Zm8.706-14.964a1.732,1.732,0,0,1-1.731-1.732,1.732,1.732,0,0,1,1.731-1.731,1.733,1.733,0,0,1,1.73,1.731A1.733,1.733,0,0,1-2966.291-3605.158Z" transform="translate(0 0.001)"/></g></svg>